<svg viewBox="0 0 273 35" fill="white" xmlns="http://www.w3.org/2000/svg">
<g clip-path="url(#clip0)">
<path d="M269.216 28.1312C269.301 27.9372 269.419 27.7687 269.565 27.6258C269.712 27.4828 269.883 27.3705 270.079 27.2888C270.275 27.2071 270.482 27.1663 270.702 27.1663C270.922 27.1663 271.129 27.2071 271.323 27.2888C271.517 27.3705 271.687 27.4828 271.832 27.6258C271.978 27.7687 272.093 27.9372 272.179 28.1312C272.264 28.3253 272.307 28.5363 272.307 28.761C272.307 28.9924 272.264 29.2052 272.179 29.4009C272.093 29.5966 271.978 29.7668 271.832 29.9115C271.687 30.0561 271.517 30.1684 271.323 30.2484C271.129 30.3284 270.922 30.3693 270.702 30.3693C270.482 30.3693 270.275 30.3284 270.079 30.2484C269.883 30.1684 269.713 30.0561 269.565 29.9115C269.419 29.7668 269.301 29.5966 269.216 29.4009C269.131 29.2052 269.087 28.9924 269.087 28.761C269.087 28.5363 269.131 28.3253 269.216 28.1312ZM269.477 29.309C269.543 29.4758 269.637 29.6204 269.756 29.743C269.875 29.8655 270.014 29.9625 270.176 30.0323C270.338 30.1021 270.513 30.1378 270.702 30.1378C270.888 30.1378 271.061 30.1021 271.221 30.0323C271.381 29.9625 271.521 29.8655 271.64 29.743C271.759 29.6204 271.851 29.4758 271.919 29.309C271.987 29.1422 272.019 28.9601 272.019 28.7627C272.019 28.572 271.985 28.3933 271.919 28.2283C271.853 28.0632 271.759 27.9202 271.64 27.7977C271.521 27.6768 271.381 27.5815 271.221 27.5117C271.061 27.442 270.888 27.4062 270.702 27.4062C270.513 27.4062 270.338 27.442 270.176 27.5117C270.014 27.5815 269.875 27.6768 269.756 27.7977C269.637 27.9185 269.545 28.0632 269.477 28.2283C269.41 28.3933 269.376 28.572 269.376 28.7627C269.376 28.9601 269.41 29.1422 269.477 29.309ZM270.799 27.83C271.02 27.83 271.185 27.8743 271.293 27.9628C271.4 28.0513 271.453 28.1857 271.453 28.3661C271.453 28.5346 271.407 28.6588 271.313 28.7371C271.219 28.8154 271.104 28.8631 270.964 28.8767L271.5 29.7004H271.187L270.677 28.8954H270.368V29.7004H270.079V27.8283H270.799V27.83ZM270.671 28.6588C270.736 28.6588 270.799 28.6571 270.857 28.652C270.915 28.6469 270.968 28.635 271.013 28.6163C271.059 28.5959 271.095 28.5669 271.122 28.5244C271.15 28.4835 271.163 28.4257 271.163 28.3525C271.163 28.2895 271.151 28.2402 271.128 28.2044C271.104 28.167 271.071 28.1398 271.034 28.1193C270.995 28.0989 270.951 28.0853 270.901 28.0785C270.852 28.0717 270.802 28.0683 270.753 28.0683H270.367V28.6588H270.671Z" fill="#fff"/>
<path d="M1.95842 24.9231C4.34111 22.9557 13.1605 18.34 16.8264 21.2759C17.3897 21.7269 17.2859 22.2953 17.5667 22.7429C18.3309 23.9598 30.0435 21.6554 32.0382 13.3177C32.1335 12.9126 31.565 11.6821 31.565 11.6821C31.1719 16.5428 23.5115 21.1567 18.1607 19.3527C17.3506 19.0804 17.7131 17.7954 16.7515 17.1623C13.1996 14.8171 6.27279 16.6415 0.704106 19.8752C0.702404 19.8752 1.21468 22.5183 1.95842 24.9231Z" fill="#fff"/>
<path d="M5.8817 35.0001C5.8817 35.0001 7.45597 32.9833 8.83113 31.9196C11.8112 29.6135 16.0864 27.1474 16.7178 29.2885C16.7178 29.2885 16.7689 29.6425 16.7127 29.9284C16.6583 30.2092 16.8557 30.4202 17.1263 30.3471C28.5853 27.2087 32.367 20.624 32.2445 15.4961C30.5391 21.9294 24.2335 25.2192 17.8666 25.9765C17.1893 25.9663 17.9143 24.7988 17.0003 24.2048C14.1854 22.3787 5.06818 27.9695 3.73047 29.9641C3.72877 29.9641 5.37282 34.1253 5.8817 35.0001Z" fill="#fff"/>
<path d="M0.067933 15.2204C8.75624 10.9588 14.3879 11.7996 16.6719 14.6094C17.5909 15.7395 17.4633 16.6228 17.996 16.8713C22.6269 19.0344 31.0599 14.6843 30.6446 10.181C30.6361 10.0057 30.4557 9.77938 30.4557 9.77938C30.2021 9.46112 29.6371 8.95905 29.6371 8.95905C31.2539 14.9787 19.3439 16.5411 17.516 13.7585C17.1586 13.2139 16.6583 11.7281 16.3996 11.3145C15.1606 9.33518 9.66677 5.55691 0.1275 10.3189C0.1275 10.3189 -0.114173 11.8778 0.067933 15.2204Z" fill="#fff"/>
<path d="M25.2411 7.09205C25.2411 7.09205 29.193 7.86642 26.7575 10.0279C25.3075 11.3145 18.2292 12.5416 17.7748 8.85183C16.4422 -1.94856 5.69458 -2.80803 1.16406 5.95516C1.16406 5.95516 1.75293 5.69477 2.00651 5.58244C11.5934 1.32254 15.8857 7.48349 16.6226 8.82801C16.8898 9.31816 17.14 9.93255 17.3323 10.3938C17.6965 11.2635 17.7135 14.6877 24.6744 12.7867C29.6985 11.4132 29.838 7.02397 25.2258 7.0461" fill="#fff"/>
<path d="M38.8799 30.3675V29.2953C42.1357 29.0741 42.2088 28.9992 42.2088 26.928V8.21024C42.2088 6.1373 42.1357 6.06412 38.8799 5.84287V4.77066H49.5713C52.4561 4.73322 54.6771 5.14168 56.1186 6.10326C57.5993 7.10229 58.4128 8.6187 58.4128 10.6525C58.4128 13.5015 56.3773 15.6459 52.9003 16.3505V16.4237C56.488 16.9054 59.5957 18.8285 59.5957 23.1923C59.5957 28.3338 55.9706 30.3693 50.3474 30.3693H38.8799V30.3675ZM45.8714 15.9421H48.3494C52.1957 15.9421 54.5273 14.4988 54.5273 10.8737C54.5273 7.06315 51.5303 6.02668 48.8668 6.06412C45.982 6.10156 45.8697 6.32281 45.8697 7.91411V15.9421H45.8714ZM45.8714 26.2251C45.8714 28.5193 46.4636 29.0741 49.4216 29.0741C52.6025 29.0741 55.637 27.8896 55.637 23.4509C55.637 19.5297 53.1216 17.2355 48.5349 17.2355H45.8714V26.2251Z" fill="#fff"/>
<path d="M76.1337 25.6702C76.1337 28.0018 76.7634 28.703 77.4288 28.8511C77.9837 28.9992 78.7972 28.9243 79.3146 28.8137L79.5375 29.7021C78.1317 30.405 76.5404 30.8117 75.1721 30.8117C73.8769 30.8117 73.2847 29.9607 72.7673 28.5924C71.5844 29.3685 69.5489 30.7368 67.2547 30.8117C63.7777 30.8117 61.9277 28.3337 61.9277 25.5596C61.9277 23.8202 62.7038 21.9719 65.3673 21.1567C68.2895 20.2326 71.8789 19.3084 72.803 18.3451V16.7913C72.803 13.8316 71.1011 13.093 69.6579 13.093C68.1789 13.093 66.6608 13.9797 65.8473 16.7181C65.6617 17.3461 65.4405 17.7546 64.6644 17.7546C63.9615 17.7546 62.5932 17.1997 62.5932 16.0152C62.5932 13.9797 65.8847 11.7979 70.0663 11.7979C75.652 11.7979 76.1337 14.572 76.1337 16.7181V25.6702ZM72.8047 19.8616C71.9912 20.3789 70.0306 21.0818 68.5499 21.6367C66.4787 22.4144 65.6652 23.3011 65.6652 25.0405C65.6652 27.2224 66.7748 28.8511 69.069 28.8511C70.5105 28.8511 72.8047 28.0733 72.8047 25.0779V19.8616Z" fill="#fff"/>
<path d="M98.1063 27.1492C98.1063 29.0349 98.2544 29.1098 100.88 29.2936V30.3658H91.8534V29.2936C94.517 29.1081 94.6276 29.0349 94.6276 27.1492V18.4183C94.6276 15.2 93.2592 13.7942 90.7438 13.7942C88.7832 13.7942 87.1187 15.0145 86.3409 16.4577C86.0448 17.05 85.9699 17.5674 85.9699 18.4932V27.1492C85.9699 29.0349 86.118 29.1098 88.744 29.2936V30.3658H79.7188V29.2936C82.3823 29.1081 82.4929 29.0349 82.4929 27.1492V15.4961C82.4929 14.1652 82.2716 13.9797 81.31 13.8316L79.9043 13.6461V12.7203L85.4168 11.7961L85.9342 14.6077C88.2284 13.127 89.9303 11.7961 92.667 11.7961C96.0708 11.7961 98.1046 13.9423 98.1046 17.678V27.1492H98.1063Z" fill="#fff"/>
<path d="M120.078 27.1492C120.078 29.0349 120.226 29.1098 122.852 29.2936V30.3658H113.827V29.2936C116.491 29.1081 116.601 29.0349 116.601 27.1492V18.4183C116.601 15.2 115.233 13.7942 112.717 13.7942C110.757 13.7942 109.092 15.0145 108.315 16.4577C108.018 17.05 107.945 17.5674 107.945 18.4932V27.1492C107.945 29.0349 108.093 29.1098 110.719 29.2936V30.3658H101.692V29.2936C104.356 29.1081 104.467 29.0349 104.467 27.1492V15.4961C104.467 14.1652 104.245 13.9797 103.284 13.8316L101.878 13.6461V12.7203L107.39 11.7979L107.908 14.6094C110.202 13.1288 111.904 11.7979 114.641 11.7979C118.043 11.7979 120.078 13.944 120.078 17.6797V27.1492Z" fill="#fff"/>
<path d="M128.142 20.6393C128.069 24.4857 128.993 28.926 133.58 28.926C136.502 28.926 137.908 27.1509 138.944 25.0048L140.054 25.597C139.055 28.5192 136.946 30.776 132.841 30.8134C126.811 30.8883 124.296 27.299 124.296 21.4546C124.296 15.9063 127.034 11.7996 132.804 11.7996C139.574 11.7996 140.277 17.0517 140.277 19.2353C140.277 20.4572 139.574 20.641 138.798 20.641H128.142V20.6393ZM135.171 19.2336C136.206 19.2336 136.429 18.7519 136.429 18.0507C136.429 16.6075 136.022 13.0947 132.581 13.0947C128.735 13.0947 128.178 17.7188 128.178 19.2353H135.171V19.2336Z" fill="#fff"/>
<path d="M148.007 14.7575C150.449 12.6131 151.557 11.7978 152.89 11.7978C154.331 11.7978 154.85 12.7969 154.85 13.6104C154.85 14.7575 154.037 15.6833 153.148 15.6833C152.963 15.6833 152.667 15.6459 152.408 15.4978C151.336 14.9073 150.706 14.6843 150.114 14.6843C149.263 14.6843 148.005 15.6459 148.005 18.4949V27.1509C148.005 29.0366 148.226 29.1115 151.52 29.2953V30.3675H141.754V29.2953C144.344 29.1098 144.528 29.0366 144.528 27.1509V15.4961C144.528 14.1652 144.307 13.9797 143.345 13.8316L141.939 13.6461V12.7203L147.563 11.7961L148.007 14.7575Z" fill="#fff"/>
<!-- the paths from this line and below -->
<path d="M169.755 17.7019V26.7442C169.755 28.8273 169.833 28.9056 173.058 29.1422V30.3607H162.521V29.1422C165.745 28.9056 165.825 28.8273 165.825 26.7442V8.2664C165.825 6.18325 165.747 6.10326 162.521 5.90754V4.68896H173.058V5.90754C169.874 6.10326 169.755 6.2224 169.755 8.2664V16.2076H182.415V8.2664C182.415 6.18325 182.337 6.10326 179.112 5.90754V4.68896H189.648V5.90754C186.464 6.10326 186.347 6.18325 186.347 8.2664V26.7459C186.347 28.829 186.464 28.9073 189.648 29.1439V30.3624H179.112V29.1439C182.335 28.9073 182.415 28.829 182.415 26.7459V17.7036H169.755V17.7019Z" fill="#fff"/>
<path d="M193.82 20.7688C193.742 24.5828 194.685 28.8682 199.246 28.8682C202.156 28.8682 203.492 27.1374 204.515 25.0151L205.694 25.6448C204.672 28.5534 202.549 30.8339 198.42 30.8339C192.208 30.8339 189.85 27.2565 189.85 21.4376C189.85 15.8945 192.602 11.7656 198.42 11.7656C205.182 11.7656 205.929 17.0331 205.929 19.2745C205.929 20.4931 205.221 20.7688 204.396 20.7688H193.82ZM200.738 19.2354C201.761 19.2354 201.996 18.8031 201.996 18.0559C201.996 16.6008 201.564 13.1408 198.221 13.1408C194.407 13.1408 193.858 17.6628 193.858 19.2354H200.738Z" fill="#fff"/>
<path d="M222.364 25.4865C222.364 27.8062 222.955 28.4359 223.622 28.6317C224.015 28.7099 224.566 28.7508 225.077 28.6317L225.234 29.7719C224.33 30.3625 222.718 30.8339 221.302 30.8339C220.005 30.8339 219.336 30.1259 218.865 28.6317C217.686 29.4179 215.681 30.8339 213.4 30.8339C209.901 30.8339 208.053 28.3559 208.053 25.6039C208.053 23.8356 208.839 21.9074 211.513 21.0819C214.421 20.1782 217.961 19.2337 218.904 18.2516V16.9548C218.904 14.0445 217.449 13.1408 215.642 13.1408C214.147 13.1408 212.85 13.9271 212.025 16.6791C211.868 17.3479 211.554 17.7802 210.767 17.7802C210.02 17.7802 208.723 17.1896 208.723 16.0119C208.723 13.9679 211.712 11.7656 215.958 11.7656C221.581 11.7656 222.366 14.6351 222.366 16.8373V25.4865H222.364ZM218.904 19.8651C218.079 20.3756 216.191 21.0836 214.697 21.6334C212.692 22.4197 211.906 23.3234 211.906 25.0542C211.906 27.2174 213.046 28.7899 215.288 28.7899C216.704 28.7899 218.904 28.0819 218.904 25.1342V19.8651Z" fill="#fff"/>
<path d="M228.224 6.49638C228.224 5.08039 228.028 4.88467 227.083 4.76723L225.667 4.6498V3.5878L231.565 2.68408L231.84 2.92065V27.0215C231.84 28.8698 231.958 28.9481 234.592 29.1455V30.3641H225.472V29.1455C228.106 28.9481 228.224 28.8698 228.224 27.0215V6.49638Z" fill="#fff"/>
<path d="M241.435 13.888V25.0543C241.435 27.8454 242.575 28.71 243.833 28.71C244.736 28.71 245.327 28.6317 246.192 28.2386L246.506 29.2614C245.249 30.0477 243.833 30.834 241.945 30.834C240.609 30.834 237.818 30.3217 237.818 26.5877V13.888H235.184V12.2371H237.975L240.294 7.59766H241.435V12.2371H246.113V13.888H241.435Z" fill="#fff"/>
<path d="M249.023 6.53553C249.023 5.19952 248.828 5.0021 247.883 4.84552L246.467 4.6498V3.5878L252.325 2.68408L252.601 2.8798V14.5567C254.921 13.0232 256.571 11.7655 259.284 11.7655C262.744 11.7655 264.749 13.9287 264.749 17.6627V27.0198C264.749 28.829 264.986 28.9856 267.501 29.1438V30.3624H258.42V29.1438C260.935 28.9464 261.172 28.829 261.172 27.0198V18.3315C261.172 15.2255 259.795 13.8895 257.319 13.8895C255.392 13.8895 253.741 15.069 252.955 16.5632C252.679 17.0738 252.64 17.6252 252.64 18.529V27.0215C252.64 28.8307 252.877 28.9481 255.353 29.1455V30.3641H246.311V29.1455C248.906 28.9481 249.023 28.8307 249.023 27.0215V6.53553Z" fill="#fff"/>
</g>
<defs>
<clipPath id="clip0">
<rect width="272.307" height="35" fill="white"/>
</clipPath>
</defs>
</svg>
