<svg viewBox="0 0 144 77" fill="none" xmlns="http://www.w3.org/2000/svg">
<path d="M64.8379 50.046C67.9074 50.046 70.8063 50.787 70.9958 50.844V56.202C70.9011 56.164 68.2484 55.442 66.0505 55.442C63.5116 55.442 62.1474 56.297 62.1474 57.494C62.1474 59.014 64.0042 59.546 65.0463 59.888L66.7895 60.439C70.8821 61.75 72.7579 64.562 72.7579 67.602C72.7579 73.891 67.2253 76.019 62.3937 76.019C59.04 76.019 55.8947 75.392 55.5726 75.335V69.578C56.1221 69.711 58.7747 70.509 61.5411 70.509C64.6863 70.509 66.1263 69.597 66.1263 68.172C66.1263 66.899 64.8758 66.177 63.3032 65.683C62.9242 65.55 62.3368 65.379 61.9579 65.246C58.4337 64.125 55.5158 62.073 55.5158 57.912C55.5158 53.2 59.0211 50.046 64.8379 50.046ZM117.815 50.046C125.507 50.046 131.04 55.86 131.04 63.023C131.04 70.186 125.507 76 117.815 76C110.122 76 104.608 70.186 104.608 63.023C104.608 55.86 110.122 50.046 117.815 50.046ZM26.28 50.046C29.2547 50.046 31.4526 50.768 32.04 50.939V57.665C31.7937 57.532 29.7474 56.335 26.7347 56.335C22.6421 56.335 19.8189 59.185 19.8189 63.023C19.8189 66.747 22.5284 69.711 26.7347 69.711C29.7095 69.711 31.7747 68.533 32.04 68.381V75.107C31.2632 75.335 29.1032 76 26.28 76C19.1747 76 12.96 71.098 12.96 63.023C12.96 55.537 18.6063 50.046 26.28 50.046ZM92.1979 50.046C95.1726 50.046 97.3705 50.768 97.9579 50.939V57.665C97.7116 57.532 95.6653 56.335 92.6526 56.335C88.56 56.335 85.7368 59.185 85.7368 63.023C85.7368 66.747 88.4463 69.711 92.6526 69.711C95.6274 69.711 97.6926 68.533 97.9579 68.381V75.107C97.1621 75.335 95.0211 76 92.1979 76C85.0926 76 78.8779 71.098 78.8779 63.023C78.8779 55.537 84.5053 50.046 92.1979 50.046ZM47.0463 50.502V75.563H40.7368V50.502H47.0463ZM117.815 56.43C114.063 56.43 111.297 59.375 111.297 63.023C111.297 66.671 114.082 69.616 117.815 69.616C121.547 69.616 124.352 66.671 124.352 63.023C124.352 59.394 121.566 56.43 117.815 56.43ZM37.5726 0C39.2968 0 40.6989 1.406 40.6989 3.135V36.404C40.6989 38.133 39.2968 39.539 37.5726 39.539C35.8484 39.539 34.4463 38.133 34.4463 36.404V3.135C34.4463 1.406 35.8484 0 37.5726 0ZM106.427 39.539C104.703 39.539 103.301 38.133 103.301 36.404V3.135C103.301 1.406 104.703 0 106.427 0C108.152 0 109.554 1.406 109.554 3.135V36.404C109.554 38.133 108.152 39.539 106.427 39.539ZM20.3495 11.818C22.0737 11.818 23.4758 13.224 23.4758 14.953V30.172C23.4758 31.901 22.0737 33.307 20.3495 33.307C18.6253 33.307 17.2232 31.901 17.2232 30.172V14.934C17.2232 13.205 18.6253 11.818 20.3495 11.818ZM3.12632 20.444C4.85053 20.444 6.25263 21.85 6.25263 23.579V30.153C6.25263 31.882 4.85053 33.288 3.12632 33.288C1.40211 33.288 0 31.882 0 30.153V23.579C0 21.85 1.40211 20.444 3.12632 20.444ZM54.7958 11.818C56.52 11.818 57.9221 13.224 57.9221 14.953V30.172C57.9221 31.901 56.52 33.307 54.7958 33.307C53.0716 33.307 51.6695 31.901 51.6695 30.172V14.934C51.6505 13.205 53.0716 11.818 54.7958 11.818ZM71.9811 33.288C70.2568 33.288 68.8547 31.882 68.8547 30.153V23.579C68.8547 21.85 70.2568 20.444 71.9811 20.444H72C73.7242 20.444 75.1263 21.85 75.1263 23.579V30.153C75.1263 31.882 73.7242 33.288 72 33.288H71.9811ZM123.651 11.818C125.375 11.818 126.777 13.224 126.777 14.953V30.172C126.777 31.901 125.375 33.307 123.651 33.307C121.926 33.307 120.524 31.901 120.524 30.172V14.934C120.505 13.205 121.926 11.818 123.651 11.818ZM140.874 20.444C142.598 20.444 144 21.85 144 23.579V30.153C144 31.882 142.598 33.288 140.874 33.288C139.149 33.288 137.747 31.882 137.747 30.153V23.579C137.728 21.85 139.131 20.444 140.874 20.444ZM89.2042 11.818C90.9284 11.818 92.3305 13.224 92.3305 14.953V30.172C92.3305 31.901 90.9284 33.307 89.2042 33.307C87.48 33.307 86.0779 31.901 86.0779 30.172V14.934C86.0779 13.205 87.48 11.818 89.2042 11.818Z" fill="black"/>
</svg>
