<svg viewBox="0 0 72 79" fill="none" xmlns="http://www.w3.org/2000/svg">
<path d="M65.6264 43.8585C68.0362 26.7117 53.6157 11.0217 36.3056 10.599C20.9528 10.2242 7.96938 20.247 5.83205 35.4549C3.69473 50.6628 13.066 65.6102 28.2739 67.7476C45.2068 70.1273 63.2166 61.0052 65.6264 43.8585Z" stroke="black" stroke-width="3"/>
<path d="M33.9229 23.756L33.4366 42.5738L48.6819 33.9243" stroke="black" stroke-width="3" stroke-linejoin="round"/>
<path d="M35.1801 10.9789L34.6338 3.34766" stroke="black" stroke-width="3"/>
<line x1="27.989" y1="3.60387" x2="41.0134" y2="3.37272" stroke="black" stroke-width="3"/>
<path d="M13.6579 60.325C17.2705 64.0271 21.9538 66.6624 27.431 67.618C27.2007 68.881 26.5874 70.4554 25.0422 71.6135C20.9111 74.7094 12.6705 70.3615 11.3488 65.3711C10.7411 63.0763 13.3817 60.5785 13.6579 60.325Z" stroke="black" stroke-width="3"/>
<path d="M57.1047 60.2239C53.4922 63.9261 48.8089 66.5613 43.3317 67.517C43.5619 68.78 44.1752 70.3544 45.7205 71.5124C49.8516 74.6083 58.0922 70.2604 59.4139 65.27C60.0216 62.9752 57.381 60.4775 57.1047 60.2239Z" stroke="black" stroke-width="3"/>
</svg>