<svg viewBox="0 0 114 80" fill="none" xmlns="http://www.w3.org/2000/svg">
<path d="M45.0153 33.9409C44.1474 33.9409 43.5319 34.2838 43.1257 34.9038C42.8593 35.3124 42.6868 35.8368 42.5928 36.4654L47.3053 36.4668C47.2582 35.8568 47.14 35.3124 46.8678 34.9024C46.456 34.2838 45.8831 33.9409 45.0153 33.9409Z" fill="#fff"/>
<path d="M97.9342 33.9409C97.0664 33.9409 96.4494 34.2838 96.0461 34.9038C95.7782 35.3124 95.6058 35.8368 95.5117 36.4654L100.224 36.4668C100.177 35.8568 100.059 35.3124 99.7853 34.9024C99.3735 34.2838 98.8021 33.9409 97.9342 33.9409Z" fill="#fff"/>
<path d="M71.589 33.9839C70.7211 33.9839 70.1027 34.2853 69.6951 34.9025C69.2862 35.5269 69.0781 36.4212 69.0781 37.5527C69.0781 38.6871 69.2862 39.5814 69.6966 40.2129C70.1027 40.8372 70.7197 41.143 71.5875 41.143C72.4539 41.143 73.0752 40.8372 73.4871 40.2129C73.9032 39.5814 74.1141 38.6856 74.1141 37.5527C74.1141 36.4212 73.9032 35.5269 73.4871 34.9025C73.0767 34.2839 72.4554 33.9839 71.589 33.9839Z" fill="#fff"/>
<path d="M28.3214 38.2671C27.9238 38.5471 27.7314 38.9671 27.7314 39.5486C27.7314 39.9186 27.7984 40.2072 27.9309 40.4101C28.0164 40.5444 28.0521 40.5958 28.3114 40.803C28.3057 40.8015 28.9042 41.2716 30.248 41.1887C31.1928 41.1316 32.0321 40.9516 32.0321 40.9516V37.9399C32.0321 37.9399 31.1842 37.7985 30.238 37.7871C28.89 37.7699 28.3171 38.2671 28.3214 38.2671Z" fill="#fff"/>
<path d="M89.423 10.8365C85.8848 10.8365 82.5218 11.5937 79.4822 12.9552C75.9853 6.71048 69.4203 2.50304 61.8949 2.50304C56.2333 2.50304 51.1147 4.88463 47.4397 8.72491C43.3927 3.42167 37.013 0 29.8338 0C17.6059 0 7.69215 9.92642 7.69215 22.1687C7.69215 25.3032 8.34195 28.2834 9.5133 30.9865C3.8247 34.3182 0 40.5472 0 47.682C0 58.327 8.51865 66.9562 19.0266 66.9562C20.3675 66.9562 21.6757 66.8148 22.9368 66.5476C25.8239 74.401 33.3464 79.9986 42.1729 79.9986C50.6474 79.9986 57.9206 74.8368 61.0399 67.4762C63.4154 68.6392 66.0815 69.2907 68.8988 69.2907C75.6347 69.2907 81.5014 65.5704 84.5794 60.0657C86.1455 60.3815 87.7643 60.55 89.4216 60.55C102.995 60.55 113.999 49.4221 113.999 35.6925C114 21.9644 102.996 10.8365 89.423 10.8365ZM24.4102 39.6828C24.4102 41.6901 22.9582 42.9359 20.6183 42.9359C19.4712 42.9359 18.3711 42.7559 17.2083 42.1387C16.9888 42.013 16.7722 41.9001 16.5585 41.7444C16.5357 41.713 16.4374 41.6744 16.51 41.4858L16.9703 40.2029C17.0444 39.9829 17.2111 40.0543 17.2781 40.0971C17.4049 40.1743 17.499 40.2429 17.6629 40.3414C19.0223 41.2029 20.2806 41.2101 20.6753 41.2101C21.6913 41.2101 22.3226 40.6686 22.3226 39.9443V39.9043C22.3226 39.1114 21.3522 38.8128 20.2264 38.467L19.9785 38.3899C18.4338 37.9484 16.7851 37.3112 16.7851 35.354V35.3154C16.7851 33.4581 18.2799 32.1609 20.4202 32.1609L20.6525 32.1594C21.9094 32.1594 23.1235 32.5252 24.0041 33.0609C24.0839 33.1095 24.1609 33.2024 24.1181 33.3252C24.0768 33.4395 23.6878 34.4896 23.6422 34.6082C23.5595 34.8282 23.3315 34.6825 23.3315 34.6825C22.562 34.2553 21.3679 33.9196 20.3604 33.9196C19.4541 33.9196 18.8699 34.401 18.8699 35.0568V35.0954C18.8699 35.8611 19.8702 36.1869 21.0301 36.5655L21.2311 36.6298C22.7672 37.1169 24.4074 37.7927 24.4074 39.6485V39.6828H24.4102ZM33.9848 42.2916C33.9848 42.2916 33.7426 42.3587 33.5217 42.4087C33.3008 42.4602 32.5071 42.6216 31.8573 42.733C31.2018 42.8445 30.5292 42.9016 29.8495 42.9016C29.2068 42.9016 28.6183 42.8416 28.0981 42.7216C27.5737 42.603 27.1192 42.4059 26.753 42.1373C26.3825 41.8687 26.0932 41.5187 25.8923 41.1015C25.6899 40.6843 25.5887 40.1757 25.5887 39.5885C25.5887 39.0142 25.707 38.4999 25.9421 38.0627C26.1772 37.6255 26.4979 37.2584 26.9011 36.9698C27.3001 36.684 27.7633 36.4697 28.2806 36.3297C28.795 36.1897 29.3422 36.1197 29.9093 36.1197C30.3254 36.1197 30.6717 36.1297 30.9396 36.1497C30.9396 36.1497 31.4626 36.1969 32.0283 36.2797V35.9997C32.0283 35.1168 31.8459 34.6996 31.4854 34.421C31.1149 34.1381 30.5648 33.9924 29.8523 33.9924C29.8523 33.9924 28.2435 33.9724 26.9738 34.6639C26.9154 34.6996 26.8655 34.7196 26.8655 34.7196C26.8655 34.7196 26.7059 34.7753 26.6475 34.6125L26.1801 33.3524C26.1103 33.1695 26.24 33.0881 26.24 33.0881C26.8328 32.6209 28.2763 32.3409 28.2763 32.3409C28.7551 32.2452 29.5516 32.178 30.0476 32.178C31.3671 32.178 32.3903 32.4852 33.0828 33.0938C33.7782 33.7053 34.1316 34.6896 34.1316 36.0197L34.1344 42.0773C34.1344 42.0759 34.1487 42.2502 33.9848 42.2916ZM38.4208 42.483C38.4208 42.5945 38.3425 42.6845 38.2313 42.6845H36.4786C36.3674 42.6845 36.2891 42.593 36.2891 42.483V28.3449C36.2891 28.2334 36.3674 28.1449 36.4786 28.1449H38.2313C38.3425 28.1449 38.4208 28.2334 38.4208 28.3449V42.483ZM49.362 37.9341C49.3435 38.1056 49.1696 38.107 49.1696 38.107L42.5633 38.1013C42.6032 39.1071 42.8455 39.82 43.3328 40.3029C43.8088 40.7786 44.5697 41.0801 45.5929 41.0829C47.1618 41.0858 47.8315 40.7701 48.3061 40.5943C48.3061 40.5943 48.4885 40.5286 48.554 40.7086L48.9872 41.9216C49.0727 42.1259 49.0043 42.1973 48.9302 42.2387C48.517 42.4687 47.5109 42.8959 45.6028 42.9002C44.6766 42.9031 43.8686 42.7688 43.2031 42.5116C42.5348 42.2516 41.9762 41.8816 41.5416 41.4087C41.1084 40.9372 40.7864 40.37 40.5854 39.7243C40.3859 39.0856 40.2848 38.3742 40.2848 37.6098C40.2848 36.8583 40.3817 36.1483 40.574 35.4968C40.7664 34.8396 41.0685 34.2624 41.4689 33.7767C41.8708 33.2895 42.3824 32.8981 42.9908 32.6123C43.5993 32.3266 44.3474 32.1866 45.1739 32.1866C45.8807 32.1866 46.5262 32.3395 47.0649 32.5709C47.4781 32.7495 47.8942 33.0695 48.3203 33.5295C48.5882 33.8181 48.9986 34.451 49.1653 35.0796C49.5886 36.5726 49.3691 37.8627 49.362 37.9341ZM54.8525 42.9374C53.7054 42.9374 52.6053 42.7573 51.4425 42.1401C51.223 42.0144 51.0065 41.9016 50.7927 41.7458C50.7699 41.7144 50.6716 41.6758 50.7443 41.4873L51.2059 40.2043C51.2729 39.9943 51.471 40.0714 51.5123 40.0986C51.6363 40.1786 51.7332 40.2443 51.8971 40.3429C53.2579 41.2044 54.5148 41.2115 54.9095 41.2115C55.927 41.2115 56.5582 40.67 56.5582 39.9457V39.9057C56.5582 39.1128 55.5864 38.8142 54.4606 38.4685L54.2127 38.3913C52.6694 37.9499 51.0193 37.3127 51.0193 35.3554V35.3168C51.0193 33.4595 52.5141 32.1623 54.6544 32.1623L54.8867 32.1609C56.145 32.1609 57.3577 32.5266 58.2383 33.0624C58.3181 33.1109 58.3951 33.2038 58.3523 33.3267C58.311 33.441 57.922 34.491 57.8764 34.6096C57.7937 34.8296 57.5657 34.6839 57.5657 34.6839C56.7962 34.2567 55.6021 33.921 54.5946 33.921C53.6883 33.921 53.104 34.4025 53.104 35.0582V35.0968C53.104 35.8626 54.1044 36.1883 55.2644 36.5669L55.4653 36.6312C57.0014 37.1184 58.6416 37.7941 58.6416 39.65V39.6885C58.6444 41.6901 57.1924 42.9374 54.8525 42.9374ZM66.395 33.981C66.358 34.181 66.1741 34.1739 66.1741 34.1739H63.9967L62.509 42.6188C62.3509 43.4917 62.1571 44.2417 61.9276 44.8446C61.6968 45.4547 61.4531 45.9018 61.0698 46.3276C60.7136 46.7205 60.3103 47.0134 59.8486 47.1805C59.3897 47.3462 58.8354 47.432 58.2269 47.432C57.9376 47.432 57.627 47.4262 57.2579 47.3391C56.9929 47.2777 56.8489 47.2319 56.6551 47.1634C56.5711 47.1334 56.5055 47.0305 56.5525 46.8991C56.5996 46.7662 56.9886 45.6933 57.0413 45.5518C57.1097 45.3804 57.2807 45.4461 57.2807 45.4461C57.3976 45.4947 57.4802 45.5304 57.637 45.5604C57.7952 45.5918 58.0075 45.619 58.1671 45.619C58.4535 45.619 58.7171 45.5833 58.9437 45.5075C59.2201 45.4147 59.3798 45.2532 59.5493 45.0389C59.7232 44.8161 59.8657 44.5075 60.0096 44.096C60.1564 43.6788 60.2889 43.1302 60.4043 42.463L61.8877 34.171H60.4271C60.2504 34.171 60.1948 34.0881 60.2134 33.9581L60.4599 32.5809C60.4969 32.3809 60.6808 32.388 60.6808 32.388H62.1799L62.2597 31.9394C62.4848 30.6108 62.9323 29.5993 63.5878 28.9363C64.249 28.2677 65.1909 27.9291 66.3865 27.9291C66.7285 27.9291 67.0292 27.952 67.2842 27.9991C67.535 28.0449 67.726 28.0877 67.9383 28.1534C67.9853 28.172 68.1107 28.2363 68.0594 28.3849L67.555 29.7764C67.5122 29.8807 67.4823 29.945 67.2685 29.8778C67.2144 29.8621 67.1346 29.8393 66.9308 29.795C66.7812 29.765 66.5874 29.7407 66.3879 29.7407C66.1271 29.7407 65.8892 29.775 65.6797 29.8421C65.4759 29.9093 65.2878 30.025 65.1268 30.1879C64.9615 30.3536 64.7663 30.5936 64.6622 30.8951C64.42 31.5951 64.3245 32.3409 64.3131 32.388H66.4264C66.6016 32.388 66.6572 32.4709 66.6401 32.6009L66.395 33.981ZM76.0679 39.6557C75.877 40.3057 75.5763 40.8786 75.1802 41.3558C74.7812 41.8344 74.2767 42.2173 73.681 42.4902C73.0826 42.7616 72.3815 42.9002 71.5906 42.9002C70.7983 42.9002 70.0943 42.7631 69.4973 42.4902C68.9002 42.2187 68.3943 41.8344 67.9981 41.3558C67.5992 40.8772 67.3013 40.3043 67.1104 39.6557C66.9194 39.0114 66.8225 38.3013 66.8225 37.5527C66.8225 36.8041 66.9194 36.0969 67.1104 35.4497C67.3013 34.8011 67.5992 34.2282 67.9981 33.751C68.3957 33.2709 68.9002 32.8852 69.4958 32.6066C70.0929 32.328 70.7969 32.1852 71.5906 32.1852C72.3815 32.1852 73.0854 32.328 73.681 32.6066C74.2795 32.8852 74.784 33.2695 75.1802 33.7495C75.5777 34.2267 75.877 34.7996 76.0679 35.4497C76.2589 36.0969 76.3558 36.8041 76.3558 37.5527C76.3558 38.3027 76.2589 39.0085 76.0679 39.6557ZM84.2346 32.7352C84.1748 32.9152 83.8513 33.8238 83.7387 34.1267C83.6945 34.241 83.6247 34.3196 83.495 34.3067C83.495 34.3067 83.116 34.2153 82.7697 34.2153C82.5317 34.2153 82.1911 34.2467 81.8848 34.341C81.5827 34.4339 81.3091 34.5982 81.0668 34.8325C80.826 35.0682 80.6308 35.3954 80.4883 35.8068C80.3429 36.2212 80.2688 36.8826 80.2688 37.5455V42.483C80.2688 42.5945 80.1805 42.683 80.0693 42.683H78.3337C78.2211 42.683 78.1327 42.5945 78.1327 42.483V32.6009C78.1327 32.4895 78.2111 32.4009 78.3223 32.4009H80.0166C80.1278 32.4009 80.2061 32.4895 80.2061 32.6009L80.2076 33.4081C80.4583 33.0666 80.9129 32.7666 81.3233 32.5823C81.7351 32.3952 82.1969 32.2566 83.0276 32.3066C83.4594 32.3352 84.0223 32.4537 84.1348 32.4966C84.179 32.5138 84.2845 32.5866 84.2346 32.7352ZM92.4967 42.4002C91.7572 42.6902 90.7326 42.8945 89.7323 42.8945C88.0394 42.8945 86.7426 42.4059 85.879 41.4401C85.0155 40.4815 84.5809 39.1685 84.5809 37.547C84.5809 36.7941 84.6863 36.0854 84.8987 35.4382C85.1096 34.7896 85.4287 34.2167 85.8477 33.7381C86.2681 33.2595 86.7953 32.8752 87.4209 32.598C88.0465 32.3195 88.7761 32.178 89.5954 32.178C90.1455 32.178 90.64 32.2123 91.0603 32.2752C91.5121 32.3437 92.1091 32.5066 92.3628 32.6066C92.4098 32.6252 92.5367 32.6866 92.4854 32.8366C92.3029 33.3595 92.1776 33.6967 92.0051 34.1739C91.9324 34.3753 91.7785 34.3082 91.7785 34.3082C91.1359 34.1067 90.5203 34.0124 89.7166 34.0124C88.7519 34.0124 88.0265 34.3367 87.5506 34.9682C87.0718 35.6054 86.8053 36.4383 86.801 37.5455C86.7982 38.7628 87.1003 39.6643 87.6389 40.2214C88.1761 40.7772 88.9286 41.0601 89.8719 41.0601C90.2566 41.0601 90.6157 41.0344 90.9407 40.9829C91.2641 40.9329 91.5662 40.8329 91.8484 40.7243C91.8484 40.7243 92.035 40.6515 92.0977 40.8415L92.5765 42.1687C92.6378 42.3316 92.4967 42.4002 92.4967 42.4002ZM102.281 37.9341C102.262 38.1056 102.088 38.107 102.088 38.107L95.4821 38.1013C95.522 39.1071 95.7643 39.82 96.2516 40.3029C96.7276 40.7786 97.4871 41.0801 98.5117 41.0829C100.081 41.0858 100.75 40.7701 101.225 40.5943C101.225 40.5943 101.407 40.5286 101.473 40.7086L101.907 41.9216C101.993 42.1259 101.925 42.1973 101.85 42.2387C101.437 42.4687 100.431 42.8959 98.5231 42.9002C97.5968 42.9031 96.7888 42.7688 96.1234 42.5116C95.455 42.2516 94.8965 41.8816 94.4618 41.4087C94.0272 40.9372 93.7066 40.37 93.5056 39.7243C93.3061 39.0856 93.2064 38.3742 93.2064 37.6098C93.2064 36.8583 93.3033 36.1483 93.4957 35.4968C93.688 34.8396 93.9902 34.2624 94.3906 33.7767C94.7924 33.2895 95.304 32.8981 95.9125 32.6123C96.521 32.3266 97.2691 32.1866 98.0941 32.1866C98.8024 32.1866 99.4493 32.3395 99.988 32.5709C100.4 32.7495 100.817 33.0695 101.243 33.5295C101.511 33.8181 101.922 34.451 102.088 35.0796C102.507 36.5726 102.288 37.8627 102.281 37.9341Z" fill="#fff"/>
<path d="M32.0321 40.9529C32.0321 40.9529 31.1928 41.1329 30.248 41.1901C28.9042 41.2729 28.3057 40.8015 28.3114 40.8043C28.0521 40.5972 28.0164 40.5457 27.9309 40.4114C27.7984 40.2086 27.7314 39.9186 27.7314 39.5499C27.7314 38.9685 27.9238 38.5484 28.3214 38.2684C28.3185 38.2684 28.8914 37.7712 30.238 37.7898C31.1842 37.8012 32.0321 37.9427 32.0321 37.9427V40.9529Z" fill="#fff"/>
</svg>
